# xmcd
#
# Track frame offsets:
#	150
#	18324
#	44934
#	61551
#	78112
#	102158
#	119085
#	138676
#	161148
#	178785
#	195795
#	218612
#	245486
#
# Disc length: 3551 seconds
#
# Revision: 0
# Processed by: cddbd v1.5PL3 Copyright (c) Steve Scherf et al.
# Submitted via: dBpowerAMP V4.0
#
DISCID=b10ddd0d
DTITLE=Dido - Life For Rent
DYEAR=2003
DGENRE=Pop
TTITLE0=White Flag
TTITLE1=Stoned
TTITLE2=Life For Rent
TTITLE3=Mary's In India
TTITLE4=See You When You're 40
TTITLE5=Don't Leave Home
TTITLE6=Who Makes You Feel
TTITLE7=Sand In My Shoes
TTITLE8=Do You Have A Little Time
TTITLE9=The Land Is Mine
TTITLE10=See The Sun
TTITLE11=Closer
TTITLE12=DATA
EXTD=
EXTT0=
EXTT1=
EXTT2=
EXTT3=
EXTT4=
EXTT5=
EXTT6=
EXTT7=
EXTT8=
EXTT9=
EXTT10=
EXTT11=
EXTT12=
PLAYORDER=
